<svg width="24.000000" height="24.000000" viewBox="0 0 24 24" fill="none" xmlns="http://www.w3.org/2000/svg" xmlns:xlink="http://www.w3.org/1999/xlink">
	<desc>
			Created with Pixso.
	</desc>
	<defs/>
	<rect id="akar-icons:search" rx="12.000000" width="24.000000" height="24.000000" fill="#FFFFFF" fill-opacity="0"/>
	<path id="Vector" d="M16.51 16.5L21 21L16.51 16.5ZM16.51 16.51C14.91 18.1 12.75 19 10.5 19C8.24 19 6.08 18.1 4.48 16.51C2.89 14.91 2 12.75 2 10.5C2 8.24 2.89 6.08 4.48 4.48C6.08 2.89 8.24 2 10.5 2C12.75 2 14.91 2.89 16.51 4.48C18.1 6.08 19 8.24 19 10.5C19 12.75 18.1 14.91 16.51 16.51Z" stroke="#1D1D1D" stroke-opacity="1.000000" stroke-width="2.000000"/>
</svg>
